<mxfile host="app.diagrams.net" modified="2024-05-07T09:16:54.039Z" agent="Mozilla/5.0 (Windows NT 10.0; Win64; x64) AppleWebKit/537.36 (KHTML, like Gecko) Chrome/124.0.0.0 Safari/537.36" etag="Ob0ehhcJpp95K3MfBJxe" version="24.3.1" type="device">
  <diagram name="ER" id="SGJwW6zVeI28XUrBPwWg">
    <mxGraphModel dx="1257" dy="620" grid="1" gridSize="10" guides="1" tooltips="1" connect="1" arrows="1" fold="1" page="1" pageScale="1" pageWidth="827" pageHeight="1169" math="0" shadow="0">
      <root>
        <mxCell id="0" />
        <mxCell id="1" parent="0" />
        <mxCell id="wZMcomyn1TRfMfZhI21l-1" value="Have" style="shape=rhombus;perimeter=rhombusPerimeter;whiteSpace=wrap;html=1;align=center;fillColor=#592E19;fontColor=#ffffff;strokeColor=#6D1F00;" parent="1" vertex="1">
          <mxGeometry x="352" y="110" width="120" height="60" as="geometry" />
        </mxCell>
        <mxCell id="ExgbB--A5CU3ih82Blzd-2" style="edgeStyle=orthogonalEdgeStyle;rounded=0;orthogonalLoop=1;jettySize=auto;html=1;entryX=0;entryY=0.5;entryDx=0;entryDy=0;endArrow=none;endFill=0;exitX=0.5;exitY=1;exitDx=0;exitDy=0;" parent="1" source="wZMcomyn1TRfMfZhI21l-1" target="79xkGP6V42SQ-2pBqaRj-6" edge="1">
          <mxGeometry relative="1" as="geometry">
            <Array as="points">
              <mxPoint x="410" y="170" />
              <mxPoint x="410" y="500" />
            </Array>
          </mxGeometry>
        </mxCell>
        <mxCell id="wZMcomyn1TRfMfZhI21l-2" value="Hotel" style="whiteSpace=wrap;html=1;align=center;fillColor=#D0CEE2;strokeColor=#56517e;" parent="1" vertex="1">
          <mxGeometry x="138" y="120" width="100" height="40" as="geometry" />
        </mxCell>
        <mxCell id="wZMcomyn1TRfMfZhI21l-3" value="User" style="whiteSpace=wrap;html=1;align=center;fillColor=#D0CEE2;" parent="1" vertex="1">
          <mxGeometry x="588" y="120" width="100" height="40" as="geometry" />
        </mxCell>
        <mxCell id="79xkGP6V42SQ-2pBqaRj-1" value="" style="endArrow=none;html=1;rounded=0;entryX=0;entryY=0.5;entryDx=0;entryDy=0;exitX=1;exitY=0.5;exitDx=0;exitDy=0;" parent="1" source="wZMcomyn1TRfMfZhI21l-2" target="wZMcomyn1TRfMfZhI21l-1" edge="1">
          <mxGeometry width="50" height="50" relative="1" as="geometry">
            <mxPoint x="278" y="190" as="sourcePoint" />
            <mxPoint x="328" y="140" as="targetPoint" />
          </mxGeometry>
        </mxCell>
        <mxCell id="79xkGP6V42SQ-2pBqaRj-2" value="" style="endArrow=none;html=1;rounded=0;entryX=0;entryY=0.5;entryDx=0;entryDy=0;exitX=1;exitY=0.5;exitDx=0;exitDy=0;" parent="1" source="wZMcomyn1TRfMfZhI21l-1" target="wZMcomyn1TRfMfZhI21l-3" edge="1">
          <mxGeometry width="50" height="50" relative="1" as="geometry">
            <mxPoint x="478" y="180" as="sourcePoint" />
            <mxPoint x="362" y="150" as="targetPoint" />
          </mxGeometry>
        </mxCell>
        <mxCell id="79xkGP6V42SQ-2pBqaRj-3" value="1:n" style="text;html=1;align=center;verticalAlign=middle;resizable=0;points=[];autosize=1;strokeColor=none;fillColor=none;" parent="1" vertex="1">
          <mxGeometry x="538" y="110" width="40" height="30" as="geometry" />
        </mxCell>
        <mxCell id="79xkGP6V42SQ-2pBqaRj-4" value="1:1" style="text;html=1;align=center;verticalAlign=middle;resizable=0;points=[];autosize=1;strokeColor=none;fillColor=none;" parent="1" vertex="1">
          <mxGeometry x="248" y="110" width="40" height="30" as="geometry" />
        </mxCell>
        <mxCell id="79xkGP6V42SQ-2pBqaRj-5" value="1:n" style="text;html=1;align=center;verticalAlign=middle;resizable=0;points=[];autosize=1;strokeColor=none;fillColor=none;" parent="1" vertex="1">
          <mxGeometry x="392" y="80" width="40" height="30" as="geometry" />
        </mxCell>
        <mxCell id="79xkGP6V42SQ-2pBqaRj-6" value="Product" style="whiteSpace=wrap;html=1;align=center;fillColor=#D0CEE2;" parent="1" vertex="1">
          <mxGeometry x="588" y="480" width="100" height="40" as="geometry" />
        </mxCell>
        <mxCell id="79xkGP6V42SQ-2pBqaRj-7" value="Book" style="shape=rhombus;perimeter=rhombusPerimeter;whiteSpace=wrap;html=1;align=center;fillColor=#592E19;fontColor=#ffffff;strokeColor=#6D1F00;" parent="1" vertex="1">
          <mxGeometry x="578" y="300" width="120" height="60" as="geometry" />
        </mxCell>
        <mxCell id="79xkGP6V42SQ-2pBqaRj-8" value="" style="endArrow=none;html=1;rounded=0;entryX=0.5;entryY=1;entryDx=0;entryDy=0;exitX=0.5;exitY=0;exitDx=0;exitDy=0;" parent="1" source="79xkGP6V42SQ-2pBqaRj-7" target="wZMcomyn1TRfMfZhI21l-3" edge="1">
          <mxGeometry width="50" height="50" relative="1" as="geometry">
            <mxPoint x="482" y="150" as="sourcePoint" />
            <mxPoint x="598" y="150" as="targetPoint" />
          </mxGeometry>
        </mxCell>
        <mxCell id="79xkGP6V42SQ-2pBqaRj-9" value="" style="endArrow=none;html=1;rounded=0;entryX=0.5;entryY=0;entryDx=0;entryDy=0;exitX=0.5;exitY=1;exitDx=0;exitDy=0;" parent="1" source="79xkGP6V42SQ-2pBqaRj-7" target="79xkGP6V42SQ-2pBqaRj-6" edge="1">
          <mxGeometry width="50" height="50" relative="1" as="geometry">
            <mxPoint x="641" y="310" as="sourcePoint" />
            <mxPoint x="642" y="220" as="targetPoint" />
          </mxGeometry>
        </mxCell>
        <mxCell id="79xkGP6V42SQ-2pBqaRj-10" value="&lt;div&gt;0:n&lt;/div&gt;" style="text;html=1;align=center;verticalAlign=middle;resizable=0;points=[];autosize=1;strokeColor=none;fillColor=none;" parent="1" vertex="1">
          <mxGeometry x="638" y="440" width="40" height="30" as="geometry" />
        </mxCell>
        <mxCell id="79xkGP6V42SQ-2pBqaRj-11" value="0:1" style="text;html=1;align=center;verticalAlign=middle;resizable=0;points=[];autosize=1;strokeColor=none;fillColor=none;" parent="1" vertex="1">
          <mxGeometry x="638" y="170" width="40" height="30" as="geometry" />
        </mxCell>
        <mxCell id="79xkGP6V42SQ-2pBqaRj-17" value="&lt;div&gt;1:n&lt;/div&gt;" style="text;html=1;align=center;verticalAlign=middle;resizable=0;points=[];autosize=1;strokeColor=none;fillColor=none;" parent="1" vertex="1">
          <mxGeometry x="692" y="315" width="40" height="30" as="geometry" />
        </mxCell>
        <mxCell id="79xkGP6V42SQ-2pBqaRj-24" value="ID" style="ellipse;whiteSpace=wrap;html=1;align=center;fontStyle=4;fillColor=#647687;fontColor=#ffffff;strokeColor=#314354;" parent="1" vertex="1">
          <mxGeometry x="588" y="550" width="100" height="40" as="geometry" />
        </mxCell>
        <mxCell id="79xkGP6V42SQ-2pBqaRj-25" value="ID" style="ellipse;whiteSpace=wrap;html=1;align=center;fontStyle=4;fillColor=#647687;fontColor=#ffffff;strokeColor=#314354;" parent="1" vertex="1">
          <mxGeometry x="588" y="40" width="100" height="40" as="geometry" />
        </mxCell>
        <mxCell id="79xkGP6V42SQ-2pBqaRj-26" value="ID" style="ellipse;whiteSpace=wrap;html=1;align=center;fontStyle=4;fillColor=#647687;fontColor=#ffffff;strokeColor=#314354;" parent="1" vertex="1">
          <mxGeometry x="138" y="40" width="100" height="40" as="geometry" />
        </mxCell>
        <mxCell id="79xkGP6V42SQ-2pBqaRj-28" value="Name" style="ellipse;whiteSpace=wrap;html=1;align=center;" parent="1" vertex="1">
          <mxGeometry y="57.5" width="100" height="40" as="geometry" />
        </mxCell>
        <mxCell id="79xkGP6V42SQ-2pBqaRj-29" value="City" style="ellipse;whiteSpace=wrap;html=1;align=center;" parent="1" vertex="1">
          <mxGeometry y="120" width="100" height="40" as="geometry" />
        </mxCell>
        <mxCell id="79xkGP6V42SQ-2pBqaRj-30" value="Country" style="ellipse;whiteSpace=wrap;html=1;align=center;" parent="1" vertex="1">
          <mxGeometry y="180" width="100" height="40" as="geometry" />
        </mxCell>
        <mxCell id="79xkGP6V42SQ-2pBqaRj-31" value="" style="endArrow=none;html=1;rounded=0;exitX=1;exitY=0.5;exitDx=0;exitDy=0;entryX=0;entryY=1;entryDx=0;entryDy=0;" parent="1" source="79xkGP6V42SQ-2pBqaRj-30" target="wZMcomyn1TRfMfZhI21l-2" edge="1">
          <mxGeometry relative="1" as="geometry">
            <mxPoint x="167" y="210" as="sourcePoint" />
            <mxPoint x="327" y="210" as="targetPoint" />
          </mxGeometry>
        </mxCell>
        <mxCell id="79xkGP6V42SQ-2pBqaRj-32" value="" style="endArrow=none;html=1;rounded=0;exitX=1;exitY=0.5;exitDx=0;exitDy=0;entryX=0;entryY=0;entryDx=0;entryDy=0;" parent="1" source="79xkGP6V42SQ-2pBqaRj-28" target="wZMcomyn1TRfMfZhI21l-2" edge="1">
          <mxGeometry relative="1" as="geometry">
            <mxPoint x="127" y="213" as="sourcePoint" />
            <mxPoint x="148" y="170" as="targetPoint" />
          </mxGeometry>
        </mxCell>
        <mxCell id="79xkGP6V42SQ-2pBqaRj-33" value="" style="endArrow=none;html=1;rounded=0;exitX=1;exitY=0.5;exitDx=0;exitDy=0;entryX=0;entryY=0.5;entryDx=0;entryDy=0;" parent="1" source="79xkGP6V42SQ-2pBqaRj-29" target="wZMcomyn1TRfMfZhI21l-2" edge="1">
          <mxGeometry relative="1" as="geometry">
            <mxPoint x="137" y="223" as="sourcePoint" />
            <mxPoint x="158" y="180" as="targetPoint" />
          </mxGeometry>
        </mxCell>
        <mxCell id="79xkGP6V42SQ-2pBqaRj-34" value="" style="endArrow=none;html=1;rounded=0;exitX=0.5;exitY=1;exitDx=0;exitDy=0;entryX=0.5;entryY=0;entryDx=0;entryDy=0;" parent="1" source="79xkGP6V42SQ-2pBqaRj-26" target="wZMcomyn1TRfMfZhI21l-2" edge="1">
          <mxGeometry relative="1" as="geometry">
            <mxPoint x="147" y="233" as="sourcePoint" />
            <mxPoint x="168" y="190" as="targetPoint" />
          </mxGeometry>
        </mxCell>
        <mxCell id="79xkGP6V42SQ-2pBqaRj-42" value="" style="endArrow=none;html=1;rounded=0;entryX=0.5;entryY=0;entryDx=0;entryDy=0;exitX=0.5;exitY=1;exitDx=0;exitDy=0;" parent="1" source="79xkGP6V42SQ-2pBqaRj-6" target="79xkGP6V42SQ-2pBqaRj-24" edge="1">
          <mxGeometry width="50" height="50" relative="1" as="geometry">
            <mxPoint x="476" y="200" as="sourcePoint" />
            <mxPoint x="592" y="200" as="targetPoint" />
          </mxGeometry>
        </mxCell>
        <mxCell id="79xkGP6V42SQ-2pBqaRj-43" value="" style="endArrow=none;html=1;rounded=0;entryX=0.5;entryY=0;entryDx=0;entryDy=0;exitX=0.5;exitY=1;exitDx=0;exitDy=0;" parent="1" source="79xkGP6V42SQ-2pBqaRj-25" target="wZMcomyn1TRfMfZhI21l-3" edge="1">
          <mxGeometry width="50" height="50" relative="1" as="geometry">
            <mxPoint x="492" y="160" as="sourcePoint" />
            <mxPoint x="608" y="160" as="targetPoint" />
          </mxGeometry>
        </mxCell>
        <mxCell id="79xkGP6V42SQ-2pBqaRj-47" value="Password" style="ellipse;whiteSpace=wrap;html=1;align=center;" parent="1" vertex="1">
          <mxGeometry x="727" y="120" width="100" height="40" as="geometry" />
        </mxCell>
        <mxCell id="79xkGP6V42SQ-2pBqaRj-48" value="" style="endArrow=none;html=1;rounded=0;exitX=0;exitY=0.5;exitDx=0;exitDy=0;entryX=1;entryY=0.5;entryDx=0;entryDy=0;" parent="1" source="79xkGP6V42SQ-2pBqaRj-47" target="wZMcomyn1TRfMfZhI21l-3" edge="1">
          <mxGeometry width="50" height="50" relative="1" as="geometry">
            <mxPoint x="737" y="420" as="sourcePoint" />
            <mxPoint x="698" y="420" as="targetPoint" />
          </mxGeometry>
        </mxCell>
        <mxCell id="79xkGP6V42SQ-2pBqaRj-49" value="Email" style="ellipse;whiteSpace=wrap;html=1;align=center;" parent="1" vertex="1">
          <mxGeometry x="138" y="200" width="100" height="40" as="geometry" />
        </mxCell>
        <mxCell id="79xkGP6V42SQ-2pBqaRj-50" value="" style="endArrow=none;html=1;rounded=0;entryX=0.5;entryY=1;entryDx=0;entryDy=0;exitX=0.5;exitY=0;exitDx=0;exitDy=0;" parent="1" source="79xkGP6V42SQ-2pBqaRj-49" target="wZMcomyn1TRfMfZhI21l-2" edge="1">
          <mxGeometry width="50" height="50" relative="1" as="geometry">
            <mxPoint x="361" y="420" as="sourcePoint" />
            <mxPoint x="247" y="420" as="targetPoint" />
          </mxGeometry>
        </mxCell>
        <mxCell id="79xkGP6V42SQ-2pBqaRj-51" value="Email" style="ellipse;whiteSpace=wrap;html=1;align=center;" parent="1" vertex="1">
          <mxGeometry x="727" y="57.5" width="100" height="40" as="geometry" />
        </mxCell>
        <mxCell id="79xkGP6V42SQ-2pBqaRj-52" value="" style="endArrow=none;html=1;rounded=0;exitX=0;exitY=0.5;exitDx=0;exitDy=0;entryX=1;entryY=0;entryDx=0;entryDy=0;" parent="1" source="79xkGP6V42SQ-2pBqaRj-51" target="wZMcomyn1TRfMfZhI21l-3" edge="1">
          <mxGeometry width="50" height="50" relative="1" as="geometry">
            <mxPoint x="737" y="150" as="sourcePoint" />
            <mxPoint x="698" y="150" as="targetPoint" />
          </mxGeometry>
        </mxCell>
        <mxCell id="XjHQdV3Elhb2OppxeYpI-6" value="Status" style="ellipse;whiteSpace=wrap;html=1;align=center;" parent="1" vertex="1">
          <mxGeometry x="421" y="545" width="100" height="40" as="geometry" />
        </mxCell>
        <mxCell id="XjHQdV3Elhb2OppxeYpI-8" value="" style="endArrow=none;html=1;rounded=0;entryX=0;entryY=1;entryDx=0;entryDy=0;exitX=1;exitY=0.5;exitDx=0;exitDy=0;" parent="1" source="XjHQdV3Elhb2OppxeYpI-6" target="79xkGP6V42SQ-2pBqaRj-6" edge="1">
          <mxGeometry width="50" height="50" relative="1" as="geometry">
            <mxPoint x="592" y="470" as="sourcePoint" />
            <mxPoint x="475" y="470" as="targetPoint" />
          </mxGeometry>
        </mxCell>
        <mxCell id="XjHQdV3Elhb2OppxeYpI-9" value="num_guest" style="ellipse;whiteSpace=wrap;html=1;align=center;" parent="1" vertex="1">
          <mxGeometry x="727" y="180" width="100" height="40" as="geometry" />
        </mxCell>
        <mxCell id="XjHQdV3Elhb2OppxeYpI-10" value="" style="endArrow=none;html=1;rounded=0;entryX=1;entryY=1;entryDx=0;entryDy=0;exitX=0;exitY=0.5;exitDx=0;exitDy=0;" parent="1" source="XjHQdV3Elhb2OppxeYpI-9" target="wZMcomyn1TRfMfZhI21l-3" edge="1">
          <mxGeometry width="50" height="50" relative="1" as="geometry">
            <mxPoint x="737" y="490" as="sourcePoint" />
            <mxPoint x="698" y="440" as="targetPoint" />
          </mxGeometry>
        </mxCell>
        <mxCell id="XjHQdV3Elhb2OppxeYpI-11" value="Phone" style="ellipse;whiteSpace=wrap;html=1;align=center;" parent="1" vertex="1">
          <mxGeometry x="270" y="180" width="100" height="40" as="geometry" />
        </mxCell>
        <mxCell id="XjHQdV3Elhb2OppxeYpI-12" value="" style="endArrow=none;html=1;rounded=0;entryX=1;entryY=1;entryDx=0;entryDy=0;exitX=0;exitY=0.5;exitDx=0;exitDy=0;" parent="1" source="XjHQdV3Elhb2OppxeYpI-11" target="wZMcomyn1TRfMfZhI21l-2" edge="1">
          <mxGeometry width="50" height="50" relative="1" as="geometry">
            <mxPoint x="140" y="230" as="sourcePoint" />
            <mxPoint x="198" y="170" as="targetPoint" />
          </mxGeometry>
        </mxCell>
        <mxCell id="XjHQdV3Elhb2OppxeYpI-13" value="Map" style="ellipse;whiteSpace=wrap;html=1;align=center;" parent="1" vertex="1">
          <mxGeometry x="270" y="57.5" width="100" height="40" as="geometry" />
        </mxCell>
        <mxCell id="XjHQdV3Elhb2OppxeYpI-14" value="" style="endArrow=none;html=1;rounded=0;entryX=1;entryY=0;entryDx=0;entryDy=0;exitX=0;exitY=0.5;exitDx=0;exitDy=0;" parent="1" source="XjHQdV3Elhb2OppxeYpI-13" target="wZMcomyn1TRfMfZhI21l-2" edge="1">
          <mxGeometry width="50" height="50" relative="1" as="geometry">
            <mxPoint x="311" y="220" as="sourcePoint" />
            <mxPoint x="248" y="170" as="targetPoint" />
          </mxGeometry>
        </mxCell>
        <mxCell id="XjHQdV3Elhb2OppxeYpI-33" value="Duration" style="ellipse;whiteSpace=wrap;html=1;align=center;" parent="1" vertex="1">
          <mxGeometry x="464" y="250" width="100" height="40" as="geometry" />
        </mxCell>
        <mxCell id="XjHQdV3Elhb2OppxeYpI-34" value="Timestamp" style="ellipse;whiteSpace=wrap;html=1;align=center;" parent="1" vertex="1">
          <mxGeometry x="472" y="370" width="100" height="40" as="geometry" />
        </mxCell>
        <mxCell id="XjHQdV3Elhb2OppxeYpI-35" value="" style="endArrow=none;html=1;rounded=0;exitX=1;exitY=0.5;exitDx=0;exitDy=0;entryX=0;entryY=1;entryDx=0;entryDy=0;" parent="1" source="XjHQdV3Elhb2OppxeYpI-34" target="79xkGP6V42SQ-2pBqaRj-7" edge="1">
          <mxGeometry width="50" height="50" relative="1" as="geometry">
            <mxPoint x="714" y="550" as="sourcePoint" />
            <mxPoint x="692" y="490" as="targetPoint" />
          </mxGeometry>
        </mxCell>
        <mxCell id="XjHQdV3Elhb2OppxeYpI-36" value="" style="endArrow=none;html=1;rounded=0;exitX=1;exitY=0.5;exitDx=0;exitDy=0;entryX=0;entryY=0;entryDx=0;entryDy=0;" parent="1" source="XjHQdV3Elhb2OppxeYpI-33" target="79xkGP6V42SQ-2pBqaRj-7" edge="1">
          <mxGeometry width="50" height="50" relative="1" as="geometry">
            <mxPoint x="582" y="390" as="sourcePoint" />
            <mxPoint x="612" y="355" as="targetPoint" />
          </mxGeometry>
        </mxCell>
        <mxCell id="XjHQdV3Elhb2OppxeYpI-37" value="Price" style="ellipse;whiteSpace=wrap;html=1;align=center;" parent="1" vertex="1">
          <mxGeometry x="432" y="310" width="100" height="40" as="geometry" />
        </mxCell>
        <mxCell id="XjHQdV3Elhb2OppxeYpI-38" value="" style="endArrow=none;html=1;rounded=0;exitX=1;exitY=0.5;exitDx=0;exitDy=0;entryX=0;entryY=0.5;entryDx=0;entryDy=0;" parent="1" source="XjHQdV3Elhb2OppxeYpI-37" target="79xkGP6V42SQ-2pBqaRj-7" edge="1">
          <mxGeometry width="50" height="50" relative="1" as="geometry">
            <mxPoint x="582" y="400" as="sourcePoint" />
            <mxPoint x="612" y="355" as="targetPoint" />
          </mxGeometry>
        </mxCell>
        <mxCell id="XjHQdV3Elhb2OppxeYpI-39" value="Name" style="ellipse;whiteSpace=wrap;html=1;align=center;" parent="1" vertex="1">
          <mxGeometry x="760" y="545" width="100" height="40" as="geometry" />
        </mxCell>
        <mxCell id="XjHQdV3Elhb2OppxeYpI-40" value="Price" style="ellipse;whiteSpace=wrap;html=1;align=center;" parent="1" vertex="1">
          <mxGeometry x="760" y="480" width="100" height="40" as="geometry" />
        </mxCell>
        <mxCell id="XjHQdV3Elhb2OppxeYpI-41" value="Avatar" style="ellipse;whiteSpace=wrap;html=1;align=center;" parent="1" vertex="1">
          <mxGeometry x="760" y="410" width="100" height="40" as="geometry" />
        </mxCell>
        <mxCell id="XjHQdV3Elhb2OppxeYpI-44" value="" style="endArrow=none;html=1;rounded=0;exitX=0;exitY=0.5;exitDx=0;exitDy=0;entryX=1;entryY=1;entryDx=0;entryDy=0;" parent="1" source="XjHQdV3Elhb2OppxeYpI-39" target="79xkGP6V42SQ-2pBqaRj-6" edge="1">
          <mxGeometry width="50" height="50" relative="1" as="geometry">
            <mxPoint x="770" y="630" as="sourcePoint" />
            <mxPoint x="698" y="530" as="targetPoint" />
          </mxGeometry>
        </mxCell>
        <mxCell id="XjHQdV3Elhb2OppxeYpI-45" value="" style="endArrow=none;html=1;rounded=0;exitX=0;exitY=0.5;exitDx=0;exitDy=0;entryX=1;entryY=0.5;entryDx=0;entryDy=0;" parent="1" source="XjHQdV3Elhb2OppxeYpI-40" target="79xkGP6V42SQ-2pBqaRj-6" edge="1">
          <mxGeometry width="50" height="50" relative="1" as="geometry">
            <mxPoint x="770" y="510" as="sourcePoint" />
            <mxPoint x="698" y="510" as="targetPoint" />
          </mxGeometry>
        </mxCell>
        <mxCell id="ExgbB--A5CU3ih82Blzd-1" value="" style="endArrow=none;html=1;rounded=0;exitX=0;exitY=0.5;exitDx=0;exitDy=0;entryX=1;entryY=0;entryDx=0;entryDy=0;" parent="1" source="XjHQdV3Elhb2OppxeYpI-41" target="79xkGP6V42SQ-2pBqaRj-6" edge="1">
          <mxGeometry width="50" height="50" relative="1" as="geometry">
            <mxPoint x="770" y="510" as="sourcePoint" />
            <mxPoint x="698" y="510" as="targetPoint" />
          </mxGeometry>
        </mxCell>
        <mxCell id="ExgbB--A5CU3ih82Blzd-4" value="1:n" style="text;html=1;align=center;verticalAlign=middle;resizable=0;points=[];autosize=1;strokeColor=none;fillColor=none;" parent="1" vertex="1">
          <mxGeometry x="538" y="470" width="40" height="30" as="geometry" />
        </mxCell>
        <mxCell id="fgGpXkybq2MFrnWSN0rc-1" value="Paid" style="ellipse;whiteSpace=wrap;html=1;align=center;" vertex="1" parent="1">
          <mxGeometry x="532" y="200" width="100" height="40" as="geometry" />
        </mxCell>
        <mxCell id="fgGpXkybq2MFrnWSN0rc-3" value="" style="endArrow=none;html=1;rounded=0;exitX=0.5;exitY=1;exitDx=0;exitDy=0;" edge="1" parent="1" source="fgGpXkybq2MFrnWSN0rc-1" target="79xkGP6V42SQ-2pBqaRj-7">
          <mxGeometry width="50" height="50" relative="1" as="geometry">
            <mxPoint x="600" y="255" as="sourcePoint" />
            <mxPoint x="644" y="300" as="targetPoint" />
          </mxGeometry>
        </mxCell>
      </root>
    </mxGraphModel>
  </diagram>
</mxfile>
